# xmcd
#
# Track frame offsets:
#	150
#	12837
#	25065
#	37783
#	52106
#	65757
#	76574
#	88205
#	101375
#	117107
#	128856
#	143189
#	152335
#	165308
#	176173
#	188475
#	197285
#
# Disc length: 2832 seconds
# Revision: 0
# Processed by: cddbd v1.5.2PL0 Copyright (c) Steve Scherf et al.
# Submitted via: dBpowerAMP V12.0
#
DISCID=c70b0e11
DTITLE=Honky Tonkitis - Alcohol and Heartbreak
DYEAR=2012
DGENRE=Honky Tonk
TTITLE0=Pabst In A Can Schlitz In The Bottle
TTITLE1=I Wanna Marry A Bartender
TTITLE2=Snap-On Fool
TTITLE3=What Would George Jones Do?
TTITLE4=Alimony Is A Four Letter Word
TTITLE5=Tavern Of Love
TTITLE6=I'm Ready To Drink
TTITLE7=Johnny Cash Would Kick Your Ass
TTITLE8=It Only Hurt A Little
TTITLE9=I Only Drink To Fall Down
TTITLE10=I'm Gonna Drink Milwaukee Dry
TTITLE11=Congratulations You're A Loser
TTITLE12=Down And Drunk
TTITLE13=Why Don't You Understand Me?
TTITLE14=Most Of My Friends Are Behind Bars
TTITLE15=Kiss My Heineken
TTITLE16=Praying In The House Of Hank
EXTD=
EXTT0=
EXTT1=
EXTT2=
EXTT3=
EXTT4=
EXTT5=
EXTT6=
EXTT7=
EXTT8=
EXTT9=
EXTT10=
EXTT11=
EXTT12=
EXTT13=
EXTT14=
EXTT15=
EXTT16=
PLAYORDER=
